# xmcd
# Track frame offsets:
# 150
# 16523
# 32649
# 47509
# 62577
# 78814
# 92696
#
# Disc length: 1416 seconds
# Revision: 0
# Processed by: cddbd v1.5.2PL0 Copyright (c) Steve Scherf et al.
# Submitted via: VisiTrax 2.11.0.264 - For more info visit www.synapsa.com
#
DISCID=3e058607
DTITLE=Sans Band - Time Termites
DYEAR=2008
DGENRE=
TTITLE0=Time termites
TTITLE1=Angel
TTITLE2=Cherry pie
TTITLE3=Groovin' with me baby
TTITLE4=World surrounds you
TTITLE5=Revival (when you're down)
TTITLE6=Boom ticka rocka
EXTD=
EXTT0=
EXTT1=
EXTT2=
EXTT3=
EXTT4=
EXTT5=
EXTT6=
PLAYORDER=
